HIERARCHY
ROOT Hips
{
  OFFSET 221.538 92.7087 118.372
  CHANNELS 6 Xposition Yposition Zposition Zrotation Xrotation Yrotation
  JOINT RightUpLeg
  {
    OFFSET -8.9458 -8.66707 0.101652
    CHANNELS 3 Zrotation Xrotation Yrotation
    JOINT RightLeg
    {
      OFFSET 0 -44.4227 1.3727
      CHANNELS 3 Zrotation Xrotation Yrotation
      JOINT RightFoot
      {
        OFFSET 0.253549 -42.0924 -1.46059
        CHANNELS 3 Zrotation Xrotation Yrotation
        JOINT RightToes
        {
          OFFSET 0.04 -4.41509 8.4991
          CHANNELS 3 Zrotation Xrotation Yrotation
          End Site
          {
            OFFSET -0.08 -0.137448 9.77979
          }
        }
      }
    }
  }
  JOINT Spine
  {
    OFFSET 0 11.8905 0
    CHANNELS 3 Zrotation Xrotation Yrotation
    JOINT Spine1
    {
      OFFSET 0 25.6574 0.127663
      CHANNELS 3 Zrotation Xrotation Yrotation
      JOINT HEad
      {
        OFFSET 0 8.73416 0.011341
        CHANNELS 3 Zrotation Xrotation Yrotation
        End Site
        {
          OFFSET -0.29 12.7742 2.51395
        }
      }
      JOINT LeftShoulder1
      {
        OFFSET 8.99 -0.362252 -0.22
        CHANNELS 3 Zrotation Xrotation Yrotation
        JOINT LeftArm
        {
          OFFSET 10.2827 -0.00338 0.322123
          CHANNELS 3 Zrotation Xrotation Yrotation
          JOINT LeftForeArm
          {
            OFFSET 32.7669 0.099144 -1.42434
            CHANNELS 3 Zrotation Xrotation Yrotation
            JOINT LeftHand
            {
              OFFSET 27.5643 0.085362 1.02216
              CHANNELS 3 Zrotation Xrotation Yrotation
              End Site
              {
                OFFSET 16.7443 -0.6 1.50291
              }
            }
          }
        }
      }
      JOINT RightShoulder
      {
        OFFSET -8.99 -0.362252 -0.22
        CHANNELS 3 Zrotation Xrotation Yrotation
        JOINT RightArm
        {
          OFFSET -10.2827 -0.00338 0.322123
          CHANNELS 3 Zrotation Xrotation Yrotation
          JOINT RightForeArm
          {
            OFFSET -32.8971 0.099144 -1.42434
            CHANNELS 3 Zrotation Xrotation Yrotation
            JOINT RightHand
            {
              OFFSET -27.4921 0.085362 1.02216
              CHANNELS 3 Zrotation Xrotation Yrotation
              End Site
              {
                OFFSET -16.6312 -0.6 1.50291
              }
            }
          }
        }
      }
    }
  }
  JOINT LeftUpLeg
  {
    OFFSET 8.9458 -8.66707 0.101652
    CHANNELS 3 Zrotation Xrotation Yrotation
    JOINT LeftLeg
    {
      OFFSET 0 -44.4227 1.3727
      CHANNELS 3 Zrotation Xrotation Yrotation
      JOINT LeftFoot
      {
        OFFSET -0.253549 -42.0924 -1.46059
        CHANNELS 3 Zrotation Xrotation Yrotation
        JOINT LeftToes
        {
          OFFSET -0.04 -4.41509 8.4991
          CHANNELS 3 Zrotation Xrotation Yrotation
          End Site
          {
            OFFSET 0.08 -0.047448 9.77979
          }
        }
      }
    }
  }
}
MOTION
Frames:	7
Frame Time:	0.0166667
146.4043	94.2257	-212.665	0.0248827	0.283662	170.882	-7.941	-37.7969	0.511098	19.9402	45.0657	-25.329	7.31072	-8.86725	-5.52597	0.0462048	0.000533964	0.662642	-0.879748	-4.7628	-1.09462	-1.86067	-9.50445	-2.27478	2.08011	10.1606	23.4209	4.41E-32	1.59E-15	-1.59E-15	-32.974	-7.04426	-59.2279	-22.5052	-38.0989	-112.595	6.93771	12.5537	-9.32067	4.41E-32	1.59E-15	-1.59E-15	53.8917	6.52307	-63.2149	-6.90443	28.9372	37.5711	-14.1207	11.2647	-0.604877	-4.83889	3.05368	14.145	-6.33997	39.2233	10.8291	-30.3349	-30.2954	-19.32	1.41E-14	3.22E-14	6.36E-15
146.5553	93.5896	-214.689	0.866014	1.09167	170.042	-5.66448	-34.8803	-1.00469	16.9916	46.1201	-17.7747	4.55793	-10.1754	-7.82431	0.0462048	0.000533964	0.662642	-0.560572	-4.63593	-1.07452	-1.21459	-9.25746	-2.20572	1.59948	10.2726	24.5416	-7.95E-16	0.00E+00	3.18E-15	-31.975	-8.64548	-59.492	-21.9227	-38.792	-113.424	6.23885	12.3625	-10.1334	-7.95E-16	0.00E+00	3.18E-15	55.4092	6.46398	-61.4505	-6.72387	27.5809	37.6137	-14.5774	11.4936	-0.56579	-3.16457	3.36895	15.4341	-7.71442	43.1012	11.5888	-32.3535	-29.7771	-21.5295	1.47E-14	3.18E-14	9.54E-15
148.4833	92.9715	-216.109	2.75128	0.724401	169.091	-1.50069	-33.8041	-7.23068	6.78687	47.7425	-2.66311	3.09522	-9.95594	-10.235	0.0462048	0.000533964	0.662642	0.171009	-4.70798	-0.988704	0.261471	-9.41542	-1.97355	1.42326	10.1752	25.5203	3.98E-16	-3.18E-15	0.00E+00	-31.6869	-9.64421	-59.621	-21.4729	-38.8391	-114.359	5.79751	12.5295	-9.92616	3.98E-16	-3.18E-15	0.00E+00	57.537	6.38297	-58.8781	-6.54203	26.1919	37.5384	-14.9297	11.5915	-0.294305	-0.0314297	2.31322	16.8344	-9.53425	47.6817	13.3585	-33.9838	-27.5871	-24.8022	1.67E-14	2.86E-14	4.77E-15
148.8303	92.7087	-216.294	2.89096	2.25667	168.154	-2.02475	-35.6636	0.763756	16.9885	51.9981	-17.2819	3.8049	-6.01279	-9.28896	0.0462048	0.000533964	0.662642	0.156456	-4.46744	-0.966818	0.238086	-8.9341	-1.93045	1.5237	10.738	26.9425	8.83E-32	3.18E-15	-1.59E-15	-31.9754	-9.59394	-58.2421	-21.9669	-37.8616	-116.166	5.49502	13.0843	-9.52945	8.83E-32	3.18E-15	-1.59E-15	60.6077	7.63571	-55.7432	-5.87275	24.2898	36.751	-15.1531	11.1712	0.289931	1.2924	1.99153	17.8555	-12.1631	53.0235	17.0049	-35.3789	-23.532	-27.9105	9.14E-15	3.50E-14	6.36E-15
148.7363	92.6527	-217.713	3.2661	3.00632	168.089	-2.60898	-36.4148	1.77188	21.8753	54.3478	-25.1657	3.37476	-3.34967	-8.43281	0.0462048	0.000533964	0.662642	0.27141	-4.14502	-1.174	0.459155	-8.29194	-2.33772	1.33316	10.3208	28.3329	7.95E-16	1.59E-15	1.59E-15	-33.1753	-9.70062	-56.4556	-23.5613	-35.6907	-118.903	5.59166	13.5456	-9.91097	7.95E-16	1.59E-15	1.59E-15	63.8861	8.80524	-50.8005	-4.8604	22.0366	34.9844	-14.9418	10.3188	1.16762	3.9489	-0.393599	17.8873	-16.8216	60.0868	23.2597	-36.3963	-18.1937	-30.6824	9.54E-15	3.18E-14	9.54E-15
149.3683	92.8238	-218.69	3.47883	3.76567	169.166	-2.94627	-35.25	0.718477	21.5718	55.9222	-23.2996	3.72917	-3.64945	-10.0947	0.0462048	0.000533964	0.662642	0.354976	-3.86456	-1.46304	0.612778	-7.7341	-2.91226	0.948645	9.73964	29.0699	-1.59E-15	0.00E+00	-1.59E-15	-34.8352	-8.66783	-54.6178	-25.0805	-33.1461	-121.387	6.11687	13.0844	-10.9742	-1.59E-15	0.00E+00	-1.59E-15	66.1868	9.52089	-45.6533	-3.52524	20.3526	33.2606	-14.3963	9.37006	1.87461	6.84385	-3.67644	17.6611	-22.0634	67.0453	29.5322	-38.5257	-12.5404	-32.4519	1.83E-14	3.18E-14	0.00E+00
149.8073	93.447	-220.444	3.69635	3.18481	169.895	-2.99486	-34.0569	-1.70164	18.9667	55.8954	-18.965	3.52541	-4.27579	-11.0261	0.0462048	0.000533964	0.662642	0.517706	-3.94449	-1.40917	0.941114	-7.89763	-2.79272	0.971354	9.0112	29.097	-7.95E-16	0.00E+00	-1.59E-15	-36.2287	-6.54541	-53.0721	-25.6852	-31.352	-122.87	6.73386	12.0713	-11.5622	-7.95E-16	0.00E+00	-1.59E-15	67.4921	9.60989	-40.7328	-2.05652	19.4736	32.6467	-13.8622	8.66735	2.34556	9.22684	-7.99747	19.6128	-23.0978	72.9826	30.1946	-39.8272	-7.79106	-32.7028	7.95E-15	3.82E-14	3.18E-15
